# xmcd CD database file
# Copyright (C) 1993-1996 Ti Kan
#
# Track frame offsets:
# 150
# 11100
# 23280
# 34335
# 44795
# 55070
# 68062
# 82392
# 95995
# 106015
# 117470
# 126922
# 138862
# 150645
# 161310
# 172412
# 183162
# 194467
# 205427
# 215990
# 227197
# 238152
# 250490
# 262420
# 272580
# 284847
# 295642
# 306702
# 318405
# 328975
#
# Disc length: 4546 seconds
#
# Revision: 0
# Processed by: cddbd v1.4b41PL1 Copyright (c) Steve Scherf et al.
# Submitted via: inCDius 1.1b5
#
DISCID=e811c01e
DTITLE=Tommy Collins - Leonard - Disc 2
DYEAR=1900
DGENRE=
TTITLE0=What Kind Of Sweetheart Are You
TTITLE1=No Love Have I
TTITLE2=All Of The Monkey's Ain't In The Zoo
TTITLE3=That's The Way Love Is
TTITLE4=Smooth Sailin'
TTITLE5=How Do I Say Goodbye
TTITLE6=A Man We All Ought To Know
TTITLE7=Are You Ready To Go
TTITLE8=Think It Over Boys
TTITLE9=I Think Of You Yet
TTITLE10=Upon This Rock 
TTITLE11=The Feet Of The Traveler
TTITLE12=Don;t You Love Me Anymore
TTITLE13=Retirement In Heaven
TTITLE14=All The Monkeys Ain't In The Zoo
TTITLE15=What Have You Done
TTITLE16=A Love Is Born
TTITLE17=I'm Nobody's Fool But Yours
TTITLE18=O Mary Don't  You Weep
TTITLE19=Did You Let Your Light Shine
TTITLE20=In The Shadow Of The Cross
TTITLE21=When I Survey The Wondrous Cross
TTITLE22=Who At My Door Is Standing
TTITLE23=My Saviour's Love
TTITLE24=Where Could I Go But To The Lord
TTITLE25=Softly And Tenderly Jesus Is Calling
TTITLE26=Each Step Of The Way
TTITLE27=Softly And Tenderly Jesus Is Calling
TTITLE28=That's Why I Love Him
TTITLE29=Jesus Keep Me Near The Cross
EXTD=
EXTT0=
EXTT1=
EXTT2=
EXTT3=
EXTT4=
EXTT5=
EXTT6=
EXTT7=
EXTT8=
EXTT9=
EXTT10=With Wanda Collins
EXTT11=With Wanda Collins
EXTT12=
EXTT13=With Wanda Collins
EXTT14=
EXTT15=With Wanda Collins
EXTT16=
EXTT17=
EXTT18=With Wanda Collins
EXTT19=With Wanda Collins
EXTT20=
EXTT21=With Wanda Collins
EXTT22=
EXTT23=
EXTT24=
EXTT25=
EXTT26=
EXTT27=
EXTT28=
EXTT29=
PLAYORDER=
